<?xml version="1.0" encoding="utf-8"?>
<!-- Generator: Adobe Illustrator 13.0.2, SVG Export Plug-In . SVG Version: 6.00 Build 14948)  -->
<!DOCTYPE svg PUBLIC "-//W3C//DTD SVG 1.1//EN" "http://www.w3.org/Graphics/SVG/1.1/DTD/svg11.dtd">
<svg version="1.1"
	 id="svg1430" inkscape:version="0.43+devel" xmlns:svg="http://www.w3.org/2000/svg" xmlns:cc="http://web.resource.org/cc/" xmlns:rdf="http://www.w3.org/1999/02/22-rdf-syntax-ns#" sodipodi:docname="applications-multimedia.svg" xmlns:inkscape="http://www.inkscape.org/namespaces/inkscape" sodipodi:docbase="/home/jimmac/src/cvs/tango-icon-theme/scalable/categories" xmlns:dc="http://purl.org/dc/elements/1.1/" xmlns:sodipodi="http://sodipodi.sourceforge.net/DTD/sodipodi-0.dtd" sodipodi:version="0.32"
	 xmlns="http://www.w3.org/2000/svg" xmlns:xlink="http://www.w3.org/1999/xlink" x="0px" y="0px" width="48px" height="48px"
	 viewBox="0 0 48 48" enable-background="new 0 0 48 48" xml:space="preserve">
<rect x="4.859" y="12.969" fill="#0066CC" width="7.656" height="10.531"/>
<g>
	<line fill="none" stroke="#666666" x1="-10.394" y1="12.69" x2="55.143" y2="12.69"/>
	<line fill="none" stroke="#666666" x1="-9.508" y1="23.638" x2="55.497" y2="23.638"/>
	<line fill="none" stroke="#666666" x1="1.818" y1="12.69" x2="1.818" y2="23.674"/>
	<line fill="none" stroke="#666666" x1="12.764" y1="12.69" x2="12.764" y2="23.674"/>
	<line fill="none" stroke="#666666" x1="23.71" y1="12.69" x2="23.71" y2="23.674"/>
	<line fill="none" stroke="#666666" x1="45.602" y1="12.69" x2="45.602" y2="23.674"/>
	<line fill="none" stroke="#666666" x1="34.656" y1="12.69" x2="34.656" y2="23.674"/>
	<line fill="none" stroke="#0066CC" stroke-width="3" x1="54.743" y1="18.164" x2="5.188" y2="18.164"/>
</g>
<text transform="matrix(1.1649 0 0 1 2.1484 10.834)" font-family="'Verdana-Bold'" font-size="11" letter-spacing="0.858">ATCG</text>
<g>
	<rect x="-9.849" y="23.674" fill="#FFFFFF" width="65.48" height="11.219"/>
	<line fill="none" stroke="#666666" x1="-10.394" y1="23.749" x2="55.143" y2="23.749"/>
	<line fill="none" stroke="#666666" x1="-9.508" y1="34.695" x2="55.497" y2="34.695"/>
	<line fill="none" stroke="#666666" x1="1.818" y1="23.749" x2="1.818" y2="34.732"/>
	<line fill="none" stroke="#666666" x1="12.764" y1="23.749" x2="12.764" y2="34.732"/>
	<line fill="none" stroke="#666666" x1="23.71" y1="23.749" x2="23.71" y2="34.732"/>
	<line fill="none" stroke="#666666" x1="45.602" y1="23.749" x2="45.602" y2="34.732"/>
	<line fill="none" stroke="#666666" x1="34.656" y1="23.749" x2="34.656" y2="34.732"/>
	<line fill="none" stroke="#CC0000" stroke-width="3" x1="54.743" y1="29.223" x2="-9.596" y2="29.223"/>
	<path fill="none" stroke="#0066CC" stroke-width="4" stroke-linecap="round" d="M35.912,29.421"/>
	<path fill="none" stroke="#0066CC" stroke-width="4" stroke-linecap="round" d="M5.42,29.421"/>
</g>
<text transform="matrix(-1.1649 0 0 -1 45.1338 35.9541)" font-family="'Verdana-Bold'" font-size="11" letter-spacing="0.858">CGAT</text>
</svg>
