<?xml version="1.0" encoding="utf-8"?>
<!-- Generator: Adobe Illustrator 13.0.2, SVG Export Plug-In . SVG Version: 6.00 Build 14948)  -->
<!DOCTYPE svg PUBLIC "-//W3C//DTD SVG 1.1//EN" "http://www.w3.org/Graphics/SVG/1.1/DTD/svg11.dtd">
<svg version="1.1"
	 id="svg1430" sodipodi:version="0.32" inkscape:version="0.43+devel" xmlns:cc="http://web.resource.org/cc/" sodipodi:docbase="/home/jimmac/src/cvs/tango-icon-theme/scalable/categories" xmlns:inkscape="http://www.inkscape.org/namespaces/inkscape" xmlns:rdf="http://www.w3.org/1999/02/22-rdf-syntax-ns#" xmlns:sodipodi="http://sodipodi.sourceforge.net/DTD/sodipodi-0.dtd" sodipodi:docname="applications-multimedia.svg" xmlns:svg="http://www.w3.org/2000/svg" xmlns:dc="http://purl.org/dc/elements/1.1/"
	 xmlns="http://www.w3.org/2000/svg" xmlns:xlink="http://www.w3.org/1999/xlink" x="0px" y="0px" width="48px" height="48px"
	 viewBox="0 0 48 48" enable-background="new 0 0 48 48" xml:space="preserve">
<rect x="-34.416" y="22.038" fill="#FFFFFF" width="115.028" height="19.706"/>
<g>
	<line fill="none" stroke="#666666" stroke-width="2" x1="-35.375" y1="22.171" x2="79.752" y2="22.171"/>
	<line fill="none" stroke="#666666" stroke-width="2" x1="-33.817" y1="41.4" x2="80.375" y2="41.4"/>
	<line fill="none" stroke="#666666" stroke-width="2" x1="-13.921" y1="22.171" x2="-13.921" y2="41.464"/>
	<line fill="none" stroke="#666666" stroke-width="2" x1="5.307" y1="22.171" x2="5.307" y2="41.464"/>
	<line fill="none" stroke="#666666" stroke-width="2" x1="24.536" y1="22.171" x2="24.536" y2="41.464"/>
	<line fill="none" stroke="#666666" stroke-width="2" x1="62.992" y1="22.171" x2="62.992" y2="41.464"/>
	<line fill="none" stroke="#666666" stroke-width="2" x1="43.765" y1="22.171" x2="43.765" y2="41.464"/>
	<line fill="#FF1E00" stroke="#0066CC" stroke-width="5" x1="79.051" y1="31.786" x2="-33.973" y2="31.786"/>
</g>
<g>
	<g>
		<path fill="#FFFFFF" stroke="#0066CC" stroke-width="4" stroke-linecap="round" stroke-linejoin="bevel" d="M20.606,32.079
			c0,0-20.432-27.626,0.08-27.626C41.199,4.453,20.606,32.079,20.606,32.079z"/>
		<path fill="none" stroke="#0066CC" stroke-width="4" stroke-linecap="round" d="M35.912,32.029"/>
		<path fill="none" stroke="#0066CC" stroke-width="4" stroke-linecap="round" d="M5.42,32.029"/>
	</g>
	<text transform="matrix(1 0 0 1 16.9043 17.6377)" fill="#CC6600" font-family="'Verdana'" font-size="10.0591">N</text>
</g>
</svg>
