<?xml version="1.0" encoding="utf-8"?>
<!-- Generator: Adobe Illustrator 13.0.2, SVG Export Plug-In . SVG Version: 6.00 Build 14948)  -->
<!DOCTYPE svg PUBLIC "-//W3C//DTD SVG 1.1//EN" "http://www.w3.org/Graphics/SVG/1.1/DTD/svg11.dtd">
<svg version="1.1" id="Layer_1" xmlns="http://www.w3.org/2000/svg" xmlns:xlink="http://www.w3.org/1999/xlink" x="0px" y="0px"
	 width="48px" height="48px" viewBox="0 0 48 48" enable-background="new 0 0 48 48" xml:space="preserve">
<g>
	<g id="node_outline">
		<circle fill="#0066CC" cx="24.5" cy="36.524" r="5.809"/>
		<circle fill="#0066CC" cx="24.5" cy="22.5" r="11.618"/>
		<circle fill="#0066CC" cx="14.583" cy="12.583" r="5.809"/>
		<circle fill="#0066CC" cx="24.5" cy="8.476" r="5.809"/>
		<circle fill="#0066CC" cx="34.416" cy="12.583" r="5.809"/>
		<circle fill="#0066CC" cx="38.523" cy="22.5" r="5.809"/>
		<circle fill="#0066CC" cx="34.416" cy="32.416" r="5.809"/>
		<circle fill="#0066CC" cx="14.583" cy="32.417" r="5.81"/>
		<circle fill="#0066CC" cx="10.476" cy="22.5" r="5.809"/>
	</g>
	<g id="nodes">
		<circle fill="#FFFFFF" cx="24.5" cy="8.476" r="3.144"/>
		<circle fill="#FFFFFF" cx="34.416" cy="12.583" r="3.145"/>
		<circle fill="#FFFFFF" cx="38.523" cy="22.5" r="3.145"/>
		<circle fill="#FFFFFF" cx="34.416" cy="32.417" r="3.146"/>
		<circle fill="#FFFFFF" cx="24.5" cy="36.524" r="3.145"/>
		<circle fill="#FFFFFF" cx="14.583" cy="32.417" r="3.146"/>
		<circle fill="#FFFFFF" cx="10.476" cy="22.5" r="3.145"/>
		<circle fill="#FFFFFF" cx="14.583" cy="12.583" r="3.144"/>
	</g>
	<g id="connectors">
		<line fill="none" stroke="#FFFFFF" stroke-width="4" x1="24.5" y1="8.476" x2="24.5" y2="36.523"/>
		<line fill="none" stroke="#FFFFFF" stroke-width="4" x1="34.416" y1="12.583" x2="14.583" y2="32.416"/>
		<line fill="none" stroke="#FFFFFF" stroke-width="4" x1="38.523" y1="22.5" x2="10.476" y2="22.5"/>
		<line fill="none" stroke="#FFFFFF" stroke-width="4" x1="34.416" y1="32.416" x2="14.583" y2="12.583"/>
	</g>
</g>
<g>
	<g>
		
			<rect id="svg_textbox_background_1_" x="3.671" y="29.098" fill="#0066CC" stroke="#0066CC" stroke-width="2" stroke-linejoin="round" width="41.672" height="16.277"/>
		<path id="svg_textbox_reflection_3_" fill="#0066CC" d="M5.265,22.114h38.469c1.434,0,2.604,0.964,2.604,2.14v10.944
			c-14.758,1.44-26.362-5.772-41.804-5.772c-0.628,0-1.252,0.008-1.875,0.023v-5.195C2.661,23.078,3.833,22.114,5.265,22.114
			L5.265,22.114z"/>
		<path id="svg_textbox_reflection_2_" opacity="0.4" fill="#FFFFFF" enable-background="new    " d="M5.265,22.114h38.469
			c1.434,0,2.604,0.964,2.604,2.14v10.944c-14.758,1.44-26.362-5.772-41.804-5.772c-0.628,0-1.252,0.008-1.875,0.023v-5.195
			C2.661,23.078,3.833,22.114,5.265,22.114L5.265,22.114z"/>
	</g>
	
		<text transform="matrix(0.9272 0 0 1 5.0547 44.3848)" fill="#FFFFFF" font-family="'HelveticaNeue-CondensedBold'" font-size="26.3652">SVG</text>
</g>
</svg>
