<?xml version="1.0" encoding="utf-8"?>
<!-- Generator: Adobe Illustrator 13.0.2, SVG Export Plug-In . SVG Version: 6.00 Build 14948)  -->
<!DOCTYPE svg PUBLIC "-//W3C//DTD SVG 1.1//EN" "http://www.w3.org/Graphics/SVG/1.1/DTD/svg11.dtd">
<svg version="1.1"
	 id="svg11300" inkscape:export-filename="/home/jimmac/Desktop/wi-fi.png" inkscape:output_extension="org.inkscape.output.svg.inkscape" inkscape:export-ydpi="90.000000" sodipodi:docbase="/home/tigert/cvs/freedesktop.org/tango-icon-theme/scalable/actions" xmlns:svg="http://www.w3.org/2000/svg" inkscape:export-xdpi="90.000000" xmlns:sodipodi="http://inkscape.sourceforge.net/DTD/sodipodi-0.dtd" inkscape:version="0.43+devel" xmlns:inkscape="http://www.inkscape.org/namespaces/inkscape" sodipodi:docname="go-next.svg" xmlns:rdf="http://www.w3.org/1999/02/22-rdf-syntax-ns#" sodipodi:version="0.32" xmlns:dc="http://purl.org/dc/elements/1.1/" xmlns:cc="http://web.resource.org/cc/"
	 xmlns="http://www.w3.org/2000/svg" xmlns:xlink="http://www.w3.org/1999/xlink" x="0px" y="0px" width="48px" height="48px"
	 viewBox="0 0 48 48" enable-background="new 0 0 48 48" xml:space="preserve">
<sodipodi:namedview  stroke="#4e9a06" fill="#4e9a06" id="base" inkscape:cx="34.827552" inkscape:pageopacity="0.0" pagecolor="#ffffff" bordercolor="#666666" borderopacity="0.25490196" inkscape:pageshadow="2" inkscape:zoom="11.313708" inkscape:cy="27.398876" inkscape:current-layer="layer1" showgrid="false" inkscape:grid-bbox="true" inkscape:showpageshadow="false" inkscape:window-y="25" inkscape:document-units="px" inkscape:window-height="885" inkscape:window-width="1280" inkscape:window-x="0">
	</sodipodi:namedview>
<g id="layer1" inkscape:groupmode="layer" inkscape:label="Layer 1">
	
		<radialGradient id="path8660_1_" cx="-928.1973" cy="2134.7598" r="15.647" gradientTransform="matrix(1.2712 0 0 0.6823 1203.4252 -1426.3495)" gradientUnits="userSpaceOnUse">
		<stop  offset="0" style="stop-color:#000000"/>
		<stop  offset="1" style="stop-color:#000000"/>
	</radialGradient>
	
		<path id="path8660" sodipodi:cy="36.421127" sodipodi:cx="24.837126" sodipodi:type="arc" sodipodi:ry="8.3968935" sodipodi:rx="15.644737" display="none" opacity="0.2995" fill="url(#path8660_1_)" enable-background="new    " d="
		M43.389,30.195c0.002,5.896-8.897,10.677-19.882,10.679C12.523,40.876,3.616,36.1,3.612,30.204c0-0.002,0-0.005,0-0.009
		C3.609,24.301,12.51,19.521,23.493,19.52c10.983-0.002,19.892,4.776,19.896,10.669C43.389,30.191,43.389,30.193,43.389,30.195z"/>
</g>
<circle fill="#FFCC99" stroke="#CC6600" stroke-linecap="round" stroke-linejoin="round" stroke-miterlimit="10" cx="38.062" cy="8.875" r="6.375"/>
<circle fill="#FFCC99" stroke="#CC6600" stroke-linecap="round" stroke-linejoin="round" stroke-miterlimit="10" cx="38.062" cy="23.5" r="6.375"/>
<circle fill="#FFCC99" stroke="#CC6600" stroke-linecap="round" stroke-linejoin="round" stroke-miterlimit="10" cx="38.062" cy="38.125" r="6.375"/>
<text transform="matrix(1 0 0 1 35.5625 11.9277)" font-family="'GillSans'" font-size="10">1</text>
<text transform="matrix(1 0 0 1 35.5625 26.5527)" font-family="'GillSans'" font-size="10">2</text>
<text transform="matrix(1 0 0 1 35.5625 41.1777)" font-family="'GillSans'" font-size="10">3</text>
<circle fill="#FFCC99" stroke="#CC6600" stroke-linecap="round" stroke-linejoin="round" stroke-miterlimit="10" cx="10.5" cy="8.875" r="6.375"/>
<circle fill="#FFCC99" stroke="#CC6600" stroke-linecap="round" stroke-linejoin="round" stroke-miterlimit="10" cx="10.5" cy="23.5" r="6.375"/>
<circle fill="#FFCC99" stroke="#CC6600" stroke-linecap="round" stroke-linejoin="round" stroke-miterlimit="10" cx="10.5" cy="38.125" r="6.375"/>
<text transform="matrix(1 0 0 1 8 11.9277)" font-family="'GillSans'" font-size="10">3</text>
<text transform="matrix(1 0 0 1 8 26.5527)" font-family="'GillSans'" font-size="10">1</text>
<text transform="matrix(1 0 0 1 8 41.1777)" font-family="'GillSans'" font-size="10">2</text>
<path id="path8643_1_" sodipodi:nodetypes="cccccccc" fill="#0066CC" stroke="#0066CC" stroke-width="0.7406" stroke-linejoin="round" d="
	M19.685,21.108l0,4.741h3.624l0,2.384l5.57-4.717l-5.604-4.75l0.001,2.343L19.685,21.108z"/>
<path id="path8643_2_" sodipodi:nodetypes="cccccccc" fill="#0066CC" stroke="#0066CC" stroke-width="0.7406" stroke-linejoin="round" d="
	M19.685,6.483l0,4.741h3.624l0,2.384l5.57-4.717l-5.604-4.75l0.001,2.343L19.685,6.483z"/>
<path id="path8643_3_" sodipodi:nodetypes="cccccccc" fill="#0066CC" stroke="#0066CC" stroke-width="0.7406" stroke-linejoin="round" d="
	M19.685,35.732l0,4.742h3.624l0,2.384l5.57-4.717l-5.604-4.751l0.001,2.344L19.685,35.732z"/>
</svg>
